#Comment line ignore any data following # character 
#Hierarchical Translation and Rotation (.htr) file 
[Header]	
#Header keywords are followed by a single value 
FileType HTR		#Single word string
DataType HTRS		#Translation followed by rotation and scale data
FileVersion 1		#integer
NumSegments 84		#integer
NumFrames 2		#integer
DataFrameRate 30		#integer, data frame rate in this file
EulerRotationOrder ZYX
CalibrationUnits mm
RotationUnits Degrees
GlobalAxisofGravity Y
BoneLengthAxis Y
ScaleFactor 1.00
[SegmentNames&Hierarchy]
#CHILD	PARENT
MASTER GLOBAL
root MASTER
chest root
L_mid_tent01 root
R_mid_tent01 root
spine01 root
Bip01_Neck chest
L_humerus chest
R_humerus chest
weapon_bone chest
Bip01_Head Bip01_Neck
eye_left_bone Bip01_Head
eye_right_bone Bip01_Head
L_forearm L_humerus
L_front_hand L_forearm
L_weapon_bone L_forearm
L_front_hand01_01 L_front_hand
L_front_hand02_01 L_front_hand
L_front_hand03_01 L_front_hand
L_front_hand01_02 L_front_hand01_01
L_front_hand02_02 L_front_hand02_01
L_front_hand03_02 L_front_hand03_01
R_forearm R_humerus
R_front_hand R_forearm
R_weapon_bone R_forearm
R_front_hand01_01 R_front_hand
R_front_hand02_01 R_front_hand
R_front_hand03_01 R_front_hand
R_front_hand01_02 R_front_hand01_01
R_front_hand02_02 R_front_hand02_01
R_front_hand03_02 R_front_hand03_01
null_rope01_connect L_mid_tent01
Rope1_Seg01 null_rope01_connect
Rope1_Seg02 Rope1_Seg01
Rope1_Seg03 Rope1_Seg02
Rope1_Seg04 Rope1_Seg03
Rope1_Seg05 Rope1_Seg04
Rope1_Seg06 Rope1_Seg05
Rope1_Seg07 Rope1_Seg06
Rope1_Seg09 Rope1_Seg07
L_mid_hand01 Rope1_Seg09
L_mid_hand02 Rope1_Seg09
L_mid_hand03 Rope1_Seg09
null_rope02_connect R_mid_tent01
Rope2_Seg01 null_rope02_connect
Rope2_Seg02 Rope2_Seg01
Rope2_Seg03 Rope2_Seg02
Rope2_Seg04 Rope2_Seg03
Rope2_Seg05 Rope2_Seg04
Rope2_Seg06 Rope2_Seg05
Rope2_Seg07 Rope2_Seg06
Rope2_Seg09 Rope2_Seg07
R_mid_hand01 Rope2_Seg09
R_mid_hand02 Rope2_Seg09
R_mid_hand03 Rope2_Seg09
spine02 spine01
spine03 spine02
pelvis spine03
null_rope03_connect pelvis
null_rope04_connect pelvis
Rope3_Seg01 null_rope03_connect
Rope3_Seg02 Rope3_Seg01
Rope3_Seg03 Rope3_Seg02
Rope3_Seg04 Rope3_Seg03
Rope3_Seg05 Rope3_Seg04
Rope3_Seg06 Rope3_Seg05
Rope3_Seg07 Rope3_Seg06
Rope3_Seg08 Rope3_Seg07
Rope3_Seg09 Rope3_Seg08
R_rear_hand01 Rope3_Seg09
R_rear_hand02 Rope3_Seg09
R_rear_hand03 Rope3_Seg09
Rope4_Seg01 null_rope04_connect
Rope4_Seg02 Rope4_Seg01
Rope4_Seg03 Rope4_Seg02
Rope4_Seg04 Rope4_Seg03
Rope4_Seg05 Rope4_Seg04
Rope4_Seg06 Rope4_Seg05
Rope4_Seg07 Rope4_Seg06
Rope4_Seg08 Rope4_Seg07
Rope4_Seg09 Rope4_Seg08
L_rear_hand01 Rope4_Seg09
L_rear_hand02 Rope4_Seg09
L_rear_hand03 Rope4_Seg09
[BasePosition]
#SegmentName Tx, Ty, Tz, Rx, Ry, Rz, BoneLength
MASTER 0.000000 0.000000 0.000000 -90.000000 0.000000 0.000000 10.000000 
root 0.000000 0.000000 0.000000 0.000000 0.000000 0.000000 10.000000 
chest 0.000000 0.000000 0.000000 0.000000 0.000000 0.000000 10.000000 
L_mid_tent01 0.000000 0.000000 0.000000 0.000000 0.000000 0.000000 10.000000 
R_mid_tent01 0.000000 0.000000 0.000000 0.000000 0.000000 0.000000 10.000000 
spine01 0.000000 0.000000 0.000000 0.000000 0.000000 0.000000 10.000000 
Bip01_Neck 0.000000 0.000000 0.000000 0.000000 0.000000 0.000000 10.000000 
L_humerus 0.000000 0.000000 0.000000 0.000000 0.000000 0.000000 10.000000 
R_humerus 0.000000 0.000000 0.000000 0.000000 0.000000 0.000000 10.000000 
weapon_bone 0.000000 0.000000 0.000000 0.000000 0.000000 0.000000 10.000000 
Bip01_Head 0.000000 0.000000 0.000000 0.000000 0.000000 0.000000 10.000000 
eye_left_bone 0.000000 0.000000 0.000000 0.000000 0.000000 0.000000 10.000000 
eye_right_bone 0.000000 0.000000 0.000000 0.000000 0.000000 0.000000 10.000000 
L_forearm 0.000000 0.000000 0.000000 0.000000 0.000000 0.000000 10.000000 
L_front_hand 0.000000 0.000000 0.000000 0.000000 0.000000 0.000000 10.000000 
L_weapon_bone 0.000000 0.000000 0.000000 0.000000 0.000000 0.000000 10.000000 
L_front_hand01_01 0.000000 0.000000 0.000000 0.000000 0.000000 0.000000 10.000000 
L_front_hand02_01 0.000000 0.000000 0.000000 0.000000 0.000000 0.000000 10.000000 
L_front_hand03_01 0.000000 0.000000 0.000000 0.000000 0.000000 0.000000 10.000000 
L_front_hand01_02 0.000000 0.000000 0.000000 0.000000 0.000000 0.000000 10.000000 
L_front_hand02_02 0.000000 0.000000 0.000000 0.000000 0.000000 0.000000 10.000000 
L_front_hand03_02 0.000000 0.000000 0.000000 0.000000 0.000000 0.000000 10.000000 
R_forearm 0.000000 0.000000 0.000000 0.000000 0.000000 0.000000 10.000000 
R_front_hand 0.000000 0.000000 0.000000 0.000000 0.000000 0.000000 10.000000 
R_weapon_bone 0.000000 0.000000 0.000000 0.000000 0.000000 0.000000 10.000000 
R_front_hand01_01 0.000000 0.000000 0.000000 0.000000 0.000000 0.000000 10.000000 
R_front_hand02_01 0.000000 0.000000 0.000000 0.000000 0.000000 0.000000 10.000000 
R_front_hand03_01 0.000000 0.000000 0.000000 0.000000 0.000000 0.000000 10.000000 
R_front_hand01_02 0.000000 0.000000 0.000000 0.000000 0.000000 0.000000 10.000000 
R_front_hand02_02 0.000000 0.000000 0.000000 0.000000 0.000000 0.000000 10.000000 
R_front_hand03_02 0.000000 0.000000 0.000000 0.000000 0.000000 0.000000 10.000000 
null_rope01_connect 0.000000 0.000000 0.000000 0.000000 0.000000 0.000000 10.000000 
Rope1_Seg01 0.000000 0.000000 0.000000 0.000000 0.000000 0.000000 10.000000 
Rope1_Seg02 0.000000 0.000000 0.000000 0.000000 0.000000 0.000000 10.000000 
Rope1_Seg03 0.000000 0.000000 0.000000 0.000000 0.000000 0.000000 10.000000 
Rope1_Seg04 0.000000 0.000000 0.000000 0.000000 0.000000 0.000000 10.000000 
Rope1_Seg05 0.000000 0.000000 0.000000 0.000000 0.000000 0.000000 10.000000 
Rope1_Seg06 0.000000 0.000000 0.000000 0.000000 0.000000 0.000000 10.000000 
Rope1_Seg07 0.000000 0.000000 0.000000 0.000000 0.000000 0.000000 10.000000 
Rope1_Seg09 0.000000 0.000000 0.000000 0.000000 0.000000 0.000000 10.000000 
L_mid_hand01 0.000000 0.000000 0.000000 0.000000 0.000000 0.000000 10.000000 
L_mid_hand02 0.000000 0.000000 0.000000 0.000000 0.000000 0.000000 10.000000 
L_mid_hand03 0.000000 0.000000 0.000000 0.000000 0.000000 0.000000 10.000000 
null_rope02_connect 0.000000 0.000000 0.000000 0.000000 0.000000 0.000000 10.000000 
Rope2_Seg01 0.000000 0.000000 0.000000 0.000000 0.000000 0.000000 10.000000 
Rope2_Seg02 0.000000 0.000000 0.000000 0.000000 0.000000 0.000000 10.000000 
Rope2_Seg03 0.000000 0.000000 0.000000 0.000000 0.000000 0.000000 10.000000 
Rope2_Seg04 0.000000 0.000000 0.000000 0.000000 0.000000 0.000000 10.000000 
Rope2_Seg05 0.000000 0.000000 0.000000 0.000000 0.000000 0.000000 10.000000 
Rope2_Seg06 0.000000 0.000000 0.000000 0.000000 0.000000 0.000000 10.000000 
Rope2_Seg07 0.000000 0.000000 0.000000 0.000000 0.000000 0.000000 10.000000 
Rope2_Seg09 0.000000 0.000000 0.000000 0.000000 0.000000 0.000000 10.000000 
R_mid_hand01 0.000000 0.000000 0.000000 0.000000 0.000000 0.000000 10.000000 
R_mid_hand02 0.000000 0.000000 0.000000 0.000000 0.000000 0.000000 10.000000 
R_mid_hand03 0.000000 0.000000 0.000000 0.000000 0.000000 0.000000 10.000000 
spine02 0.000000 0.000000 0.000000 0.000000 0.000000 0.000000 10.000000 
spine03 0.000000 0.000000 0.000000 0.000000 0.000000 0.000000 10.000000 
pelvis 0.000000 0.000000 0.000000 0.000000 0.000000 0.000000 10.000000 
null_rope03_connect 0.000000 0.000000 0.000000 0.000000 0.000000 0.000000 10.000000 
null_rope04_connect 0.000000 0.000000 0.000000 0.000000 0.000000 0.000000 10.000000 
Rope3_Seg01 0.000000 0.000000 0.000000 0.000000 0.000000 0.000000 10.000000 
Rope3_Seg02 0.000000 0.000000 0.000000 0.000000 0.000000 0.000000 10.000000 
Rope3_Seg03 0.000000 0.000000 0.000000 0.000000 0.000000 0.000000 10.000000 
Rope3_Seg04 0.000000 0.000000 0.000000 0.000000 0.000000 0.000000 10.000000 
Rope3_Seg05 0.000000 0.000000 0.000000 0.000000 0.000000 0.000000 10.000000 
Rope3_Seg06 0.000000 0.000000 0.000000 0.000000 0.000000 0.000000 10.000000 
Rope3_Seg07 0.000000 0.000000 0.000000 0.000000 0.000000 0.000000 10.000000 
Rope3_Seg08 0.000000 0.000000 0.000000 0.000000 0.000000 0.000000 10.000000 
Rope3_Seg09 0.000000 0.000000 0.000000 0.000000 0.000000 0.000000 10.000000 
R_rear_hand01 0.000000 0.000000 0.000000 0.000000 0.000000 0.000000 10.000000 
R_rear_hand02 0.000000 0.000000 0.000000 0.000000 0.000000 0.000000 10.000000 
R_rear_hand03 0.000000 0.000000 0.000000 0.000000 0.000000 0.000000 10.000000 
Rope4_Seg01 0.000000 0.000000 0.000000 0.000000 0.000000 0.000000 10.000000 
Rope4_Seg02 0.000000 0.000000 0.000000 0.000000 0.000000 0.000000 10.000000 
Rope4_Seg03 0.000000 0.000000 0.000000 0.000000 0.000000 0.000000 10.000000 
Rope4_Seg04 0.000000 0.000000 0.000000 0.000000 0.000000 0.000000 10.000000 
Rope4_Seg05 0.000000 0.000000 0.000000 0.000000 0.000000 0.000000 10.000000 
Rope4_Seg06 0.000000 0.000000 0.000000 0.000000 0.000000 0.000000 10.000000 
Rope4_Seg07 0.000000 0.000000 0.000000 0.000000 0.000000 0.000000 10.000000 
Rope4_Seg08 0.000000 0.000000 0.000000 0.000000 0.000000 0.000000 10.000000 
Rope4_Seg09 0.000000 0.000000 0.000000 0.000000 0.000000 0.000000 10.000000 
L_rear_hand01 0.000000 0.000000 0.000000 0.000000 0.000000 0.000000 10.000000 
L_rear_hand02 0.000000 0.000000 0.000000 0.000000 0.000000 0.000000 10.000000 
L_rear_hand03 0.000000 0.000000 0.000000 0.000000 0.000000 0.000000 10.000000 
#Beginning of Data. Separated by tabs
#Fr	Tx	Ty	Tz	Rx	Ry	Rz	SF
[MASTER]
19 -0.000074 554.566467 0.000000 0.001660 0.001660 0.001660 554.566467
20 -0.000074 554.566467 0.000000 0.001660 0.001660 0.001660 554.566467
[root]
19 43.663425 262.416138 1031.427734 -88.504097 -24.294769 -95.184898 1065.181641
20 71.600609 273.342682 995.661377 -88.889923 -24.279799 -94.953476 1034.980347
[chest]
19 -84.512650 -34.090519 0.000000 6.541190 -9.453489 173.449646 91.129311
20 -84.512650 -34.090519 0.000000 7.337857 -9.545251 173.514130 91.129311
[L_mid_tent01]
19 27.536564 22.041542 -251.441330 13.678607 36.267662 83.832130 253.903198
20 27.549732 22.033993 -251.525940 13.738379 36.121151 83.896019 253.987762
[R_mid_tent01]
19 23.228794 24.509907 226.238495 157.153717 -13.283627 75.488846 228.744751
20 23.228794 24.509907 226.238495 157.030426 -13.411005 75.669380 228.744751
[spine01]
19 -0.361383 -0.195265 0.000000 0.001869 0.001420 15.534143 0.410763
20 -0.361383 -0.195265 0.000000 0.001869 0.001420 15.534141 0.410763
[Bip01_Neck]
19 165.484543 71.581718 0.000119 175.896118 1.177290 24.871183 180.302734
20 165.484543 71.581718 0.000119 175.896118 1.177290 24.871183 180.302734
[L_humerus]
19 -13.983130 -135.272980 -120.471481 175.591660 28.302446 -98.690163 181.680161
20 -13.983130 -135.272980 -120.471481 175.274567 27.615267 -99.358780 181.680161
[R_humerus]
19 -13.983309 -135.273102 125.287651 -164.456070 -21.763121 -106.345512 184.909012
20 -13.983309 -135.273102 125.287651 -164.516510 -21.053873 -106.634621 184.909012
[weapon_bone]
19 235.964890 -300.705902 0.000000 0.000000 -89.951546 -128.212341 382.234833
20 235.964890 -300.705902 0.000000 0.000000 -89.951546 -128.212341 382.234833
[Bip01_Head]
19 182.307343 144.645340 16.216679 -20.688152 -7.310106 -46.746536 233.283554
20 181.721573 137.840805 16.123543 -23.205770 -19.233700 -42.943722 228.654297
[eye_left_bone]
19 -24.626970 125.451866 -64.772606 0.000000 -90.000000 -99.840431 143.318359
20 -24.626970 125.451866 -64.772606 0.000000 -90.000000 -99.840431 143.318359
[eye_right_bone]
19 -24.626970 125.451866 64.327362 0.000000 -89.960434 80.159386 143.117676
20 -24.626970 125.451866 64.327362 0.000000 -89.960434 80.159386 143.117676
[L_forearm]
19 322.776093 0.000000 -0.000119 0.000215 -0.002337 -100.504066 322.776093
20 322.776093 0.000000 -0.000119 0.000217 -0.002337 -100.603760 322.776093
[L_front_hand]
19 241.149185 -0.042021 -3.300071 -177.854736 -0.737978 -62.415684 241.171753
20 241.149185 -0.042021 -3.300071 -177.907181 -0.879137 -58.711864 241.171753
[L_weapon_bone]
19 156.183838 0.000000 0.000000 0.000014 0.000007 0.000001 156.183838
20 156.183838 0.000000 0.000000 0.000014 0.000007 0.000001 156.183838
[L_front_hand01_01]
19 86.095154 20.947098 -0.655860 -0.366594 -0.477154 75.385574 88.609184
20 86.095154 20.947098 -0.655860 -0.366594 -0.477154 75.385574 88.609184
[L_front_hand02_01]
19 86.935165 -11.437475 24.513514 154.403519 -59.888931 -61.371990 91.046425
20 86.935165 -11.437475 24.513514 154.403488 -59.888916 -61.371967 91.046425
[L_front_hand03_01]
19 86.637497 -14.123976 -20.424902 -153.913879 58.118130 -62.702892 90.126129
20 86.637497 -14.123976 -20.424902 -153.913849 58.118130 -62.702866 90.126129
[L_front_hand01_02]
19 71.020905 -0.000179 0.000030 0.000334 -0.002323 -106.379684 71.020905
20 71.020905 -0.000179 0.000030 0.000334 -0.002323 -106.379684 71.020905
[L_front_hand02_02]
19 71.020927 -0.000119 0.000060 0.000334 -0.002323 -106.379684 71.020927
20 71.020927 -0.000119 0.000060 0.000334 -0.002323 -106.379684 71.020927
[L_front_hand03_02]
19 71.020905 -0.000060 0.000060 0.000334 -0.002323 -106.379684 71.020905
20 71.020905 -0.000060 0.000060 0.000334 -0.002323 -106.379684 71.020905
[R_forearm]
19 322.776428 -0.000060 0.000030 0.207016 0.038966 -101.168022 322.776428
20 322.776428 -0.000060 0.000030 0.206973 0.039197 -101.295883 322.776428
[R_front_hand]
19 238.847015 -0.006795 2.210259 13.138815 0.794132 -51.441147 238.857239
20 238.847015 -0.006795 2.210259 13.450538 0.789708 -51.440411 238.857239
[R_weapon_bone]
19 155.664093 0.002503 -0.000030 0.003487 0.001180 -90.988930 155.664078
20 155.664093 0.002503 -0.000030 0.003487 0.001180 -90.988930 155.664078
[R_front_hand01_01]
19 87.624611 14.231146 22.918642 -154.633514 -59.950634 61.746063 91.683487
20 87.624611 14.231146 22.918642 -154.633499 -59.950619 61.746044 91.683487
[R_front_hand02_01]
19 89.356956 14.367283 -19.491137 154.602661 58.302849 63.744389 92.579636
20 89.356956 14.367283 -19.491137 154.602661 58.302849 63.744389 92.579636
[R_front_hand03_01]
19 87.286232 -22.307278 -0.143439 0.162155 -0.423168 -75.767921 90.091743
20 87.286232 -22.307278 -0.143439 0.162155 -0.423168 -75.767921 90.091743
[R_front_hand01_02]
19 71.020905 0.000060 0.000119 0.002323 -0.000334 106.381714 71.020905
20 71.020905 0.000060 0.000119 0.002323 -0.000334 106.381714 71.020905
[R_front_hand02_02]
19 71.020844 -0.000030 -0.000119 0.002323 -0.000334 106.381714 71.020836
20 71.020844 -0.000030 -0.000119 0.002323 -0.000334 106.381714 71.020836
[R_front_hand03_02]
19 71.020905 0.000000 0.000030 0.002323 -0.000334 106.381714 71.020905
20 71.020905 0.000000 0.000030 0.002323 -0.000334 106.381714 71.020905
[null_rope01_connect]
19 328.732483 0.000000 -0.000238 -122.648056 -48.584160 156.312057 328.732483
20 328.732483 0.000000 -0.000238 -122.961273 -48.584282 156.660431 328.732483
[Rope1_Seg01]
19 5.425361 -5.677849 -1.517056 56.822746 -2.258461 -116.485710 7.998373
20 5.441911 -5.656302 -1.535656 60.462898 -5.372313 -115.612526 7.997899
[Rope1_Seg02]
19 139.999863 -0.000179 0.000000 -8.373367 0.317208 -6.878894 139.999863
20 139.999863 -0.000179 0.000000 -10.733362 -0.536148 -6.618134 139.999863
[Rope1_Seg03]
19 139.999924 0.000060 -0.000060 -11.284689 3.436075 -18.018696 139.999924
20 139.999924 0.000060 -0.000060 -13.815421 1.843848 -17.486483 139.999924
[Rope1_Seg04]
19 139.999924 -0.000060 -0.000119 -15.860472 18.604782 -56.896179 139.999924
20 139.999924 -0.000060 -0.000119 -17.261414 16.976305 -57.648205 139.999924
[Rope1_Seg05]
19 139.999832 0.000119 -0.000060 1.065830 14.151584 -28.902636 139.999832
20 139.999832 0.000119 -0.000060 0.044454 14.737236 -30.104500 139.999832
[Rope1_Seg06]
19 139.999954 0.000119 -0.000060 5.669985 5.050623 -12.921817 139.999954
20 139.999954 0.000119 -0.000060 4.819632 5.103025 -12.833270 139.999954
[Rope1_Seg07]
19 139.999985 0.000060 0.000000 24.945992 5.027630 -19.566044 139.999985
20 139.999985 0.000060 0.000000 21.151499 5.432424 -19.895329 139.999985
[Rope1_Seg09]
19 121.602913 0.000119 -0.000089 -89.793175 -1.359789 0.847147 121.602913
20 121.602913 0.000119 -0.000089 -89.793175 -1.359789 0.847147 121.602913
[L_mid_hand01]
19 103.859421 1.038730 8.195221 116.294914 -23.111713 -31.758034 104.187431
20 103.859421 1.038730 8.195221 116.294914 -23.111719 -31.758038 104.187431
[L_mid_hand02]
19 105.572853 -4.139662 -10.864139 -144.219833 17.447468 -35.360519 106.211075
20 105.572853 -4.139662 -10.864139 -144.219833 17.447470 -35.360519 106.211075
[L_mid_hand03]
19 104.641464 17.579376 -3.913581 -17.830780 17.153103 31.982925 106.179977
20 104.641464 17.579376 -3.913581 -17.830780 17.153103 31.982922 106.179977
[null_rope02_connect]
19 328.732849 0.000179 -0.000119 -81.038460 68.496307 57.278900 328.732849
20 328.732849 0.000179 -0.000119 -80.556587 68.191231 58.008961 328.732849
[Rope2_Seg01]
19 0.000050 0.000171 0.000000 78.784157 -0.125817 -14.119040 0.000178
20 0.000050 0.000172 0.000000 79.484482 -1.193875 -14.853147 0.000179
[Rope2_Seg02]
19 139.999741 -0.000060 -0.000119 1.325939 5.160893 -1.156558 139.999756
20 139.999741 -0.000060 -0.000119 1.487128 5.012144 -1.012544 139.999756
[Rope2_Seg03]
19 140.000107 0.000030 0.000000 1.428177 8.833687 -2.214787 140.000107
20 140.000107 0.000030 0.000000 1.646783 8.626330 -1.997224 140.000107
[Rope2_Seg04]
19 139.999802 0.000000 -0.000060 0.859465 17.760157 -5.121992 139.999802
20 139.999802 0.000000 -0.000060 1.161674 17.734066 -4.829443 139.999802
[Rope2_Seg05]
19 139.999985 -0.000060 0.000119 -5.868073 36.689678 -17.749620 139.999985
20 139.999985 -0.000060 0.000119 -6.101182 38.143379 -17.935595 139.999985
[Rope2_Seg06]
19 139.999893 -0.000030 -0.000119 -3.312304 22.795782 -7.574998 139.999893
20 139.999893 -0.000030 -0.000119 -3.550224 23.728575 -7.877882 139.999893
[Rope2_Seg07]
19 139.999893 0.000060 -0.000060 -7.835509 12.169400 2.710186 139.999893
20 139.999893 0.000060 -0.000060 -7.908927 12.419229 2.406460 139.999893
[Rope2_Seg09]
19 121.338966 0.000089 -0.000060 33.793236 -1.359788 -0.847141 121.338966
20 121.338966 0.000089 -0.000060 33.793236 -1.359788 -0.847141 121.338966
[R_mid_hand01]
19 104.680779 11.144459 -10.335981 -41.523792 25.424656 28.595957 105.778534
20 104.680779 11.144459 -10.335981 -41.523792 25.424656 28.595957 105.778534
[R_mid_hand02]
19 104.070427 2.443552 8.231699 72.847389 -32.746803 10.013901 104.424065
20 104.070427 2.443552 8.231699 72.847389 -32.746803 10.013901 104.424065
[R_mid_hand03]
19 106.028137 -11.221827 -5.996406 -167.901306 10.259192 -37.009720 106.788818
20 106.028137 -11.221827 -5.996406 -167.901306 10.259192 -37.009720 106.788818
[spine02]
19 129.756927 0.001550 0.000119 -0.245322 -4.052060 -4.355547 129.756927
20 129.756927 0.001550 0.000119 -0.245322 -4.052060 -4.355547 129.756927
[spine03]
19 78.613846 0.087372 -4.898873 0.369659 4.260734 -4.885720 78.766380
20 78.613846 0.087372 -4.898873 0.369659 4.260734 -4.885720 78.766380
[pelvis]
19 169.435242 0.051022 0.000000 -0.010007 -0.191417 -1.897554 169.435257
20 169.435242 0.051022 0.000000 -0.010007 -0.191417 -1.897554 169.435257
[null_rope03_connect]
19 -1.257226 -2.466202 137.391083 -67.996887 -85.204575 177.976135 137.418976
20 -1.257226 -2.466202 137.391083 -71.652046 -85.401169 -178.397247 137.418976
[null_rope04_connect]
19 -1.259640 -2.480268 -137.844437 -67.996887 -85.204575 177.976135 137.872513
20 -1.259640 -2.480268 -137.844437 -71.652046 -85.401169 -178.397247 137.872513
[Rope3_Seg01]
19 0.000000 0.000000 0.000000 -33.637775 -67.944283 -11.842251 0.000000
20 0.000000 0.000000 0.000000 -31.294069 -69.245926 -14.341265 0.000000
[Rope3_Seg02]
19 139.999924 -0.000119 0.000060 -0.394172 -2.804127 3.633263 139.999924
20 139.999924 -0.000119 0.000060 -0.266188 -2.899882 3.541319 139.999924
[Rope3_Seg03]
19 139.999924 -0.000119 0.000119 -0.912653 -4.288185 5.492033 139.999924
20 139.999924 -0.000119 0.000119 -0.708487 -4.387769 5.341422 139.999924
[Rope3_Seg04]
19 139.999924 0.000119 0.000000 -2.432864 -7.233996 9.081549 139.999924
20 139.999924 0.000119 0.000000 -2.018158 -7.314756 8.798026 139.999924
[Rope3_Seg05]
19 139.999924 -0.000238 0.000060 -9.496805 -17.082138 20.456326 139.999924
20 139.999924 -0.000238 0.000060 -8.244530 -17.066496 19.843138 139.999924
[Rope3_Seg06]
19 139.999893 -0.000119 -0.000060 -9.542316 -16.558931 16.294193 139.999893
20 139.999893 -0.000119 -0.000060 -8.441854 -16.273306 16.196182 139.999893
[Rope3_Seg07]
19 139.999771 0.000060 -0.000119 -0.817610 -2.188628 2.995532 139.999771
20 139.999771 0.000060 -0.000119 -0.597047 -1.947365 2.910746 139.999771
[Rope3_Seg08]
19 139.999985 -0.000060 0.000000 -1.381793 -3.391652 3.422693 139.999985
20 139.999985 -0.000060 0.000000 -1.131870 -3.161566 3.407793 139.999985
[Rope3_Seg09]
19 90.185997 -0.000179 -0.000060 89.793228 -1.359877 -0.847183 90.185997
20 90.185997 -0.000179 -0.000060 89.793228 -1.359877 -0.847183 90.185997
[R_rear_hand01]
19 103.366196 -6.073594 -10.757982 -161.551193 16.666374 -30.088671 104.101845
20 103.366196 -6.073594 -10.757982 -161.551193 16.666374 -30.088671 104.101845
[R_rear_hand02]
19 100.509819 12.039542 -7.992327 -34.280552 19.289745 28.875523 101.543350
20 100.509819 12.039542 -7.992327 -34.280552 19.289745 28.875523 101.543350
[R_rear_hand03]
19 101.539970 5.215704 5.435467 83.366440 -30.933914 7.284830 101.819031
20 101.539970 5.215704 5.435467 83.366440 -30.933914 7.284830 101.819031
[Rope4_Seg01]
19 -0.000034 -0.000067 0.000134 -43.769619 -31.641443 -179.229187 0.000154
20 -0.000033 -0.000067 0.000133 -40.876568 -33.346733 178.704803 0.000153
[Rope4_Seg02]
19 139.999985 0.000060 0.000119 8.018838 1.826625 -10.800391 139.999985
20 139.999985 0.000060 0.000119 7.126399 1.231662 -10.218240 139.999985
[Rope4_Seg03]
19 139.999924 0.000000 -0.000238 7.339639 0.156291 -12.776137 139.999924
20 139.999924 0.000000 -0.000238 6.362908 -0.238837 -11.667052 139.999924
[Rope4_Seg04]
19 139.999985 0.000000 0.000119 4.355900 -4.084908 -11.568082 139.999985
20 139.999985 0.000000 0.000119 3.740509 -4.149753 -10.432140 139.999985
[Rope4_Seg05]
19 139.999802 -0.000060 -0.000119 3.545471 -0.018199 -12.174202 139.999802
20 139.999802 -0.000060 -0.000119 3.302128 0.201678 -11.386147 139.999802
[Rope4_Seg06]
19 139.999924 0.000000 0.000060 3.333313 5.082098 -15.969824 139.999924
20 139.999924 0.000000 0.000060 3.282311 5.486965 -14.603251 139.999924
[Rope4_Seg07]
19 139.999802 0.000000 0.000000 2.109394 2.937513 -13.319740 139.999802
20 139.999802 0.000000 0.000000 2.278374 3.240462 -11.986220 139.999802
[Rope4_Seg08]
19 139.999924 0.000000 0.000119 -0.639793 0.905049 -7.769475 139.999924
20 139.999924 0.000000 0.000119 -0.425972 1.134647 -7.144196 139.999924
[Rope4_Seg09]
19 90.185791 0.000060 0.000060 -135.617828 2.228885 0.850567 90.185791
20 90.185791 0.000060 0.000060 -135.617828 2.228885 0.850567 90.185791
[L_rear_hand01]
19 101.696655 -8.392275 -7.654577 -34.454281 -18.946800 151.655121 102.329041
20 101.696655 -8.392275 -7.654577 -34.454281 -18.946800 151.655121 102.329041
[L_rear_hand02]
19 102.726799 -1.568258 5.773216 83.407906 30.330435 172.796509 102.900848
20 102.726799 -1.568258 5.773216 83.407906 30.330435 172.796509 102.900848
[L_rear_hand03]
19 104.552910 9.721220 -10.420293 -161.379868 -16.473232 -150.512238 105.519653
20 104.552910 9.721220 -10.420293 -161.379868 -16.473232 -150.512238 105.519653
